HIERARCHY
ROOT hip
{
  OFFSET 0.0 0.0 0.0
  CHANNELS 6 Xposition Yposition Zposition Zrotation Yrotation Xrotation
  JOINT abdomen
  {
    OFFSET 0.0 20.6881 -0.73152
    CHANNELS 3 Zrotation Xrotation Yrotation
    JOINT chest
    {
      OFFSET 0.0 11.7043 -0.48768
      CHANNELS 3 Zrotation Xrotation Yrotation
      JOINT neck
      {
        OFFSET 0.0 22.1894 -2.19456
        CHANNELS 3 Zrotation Xrotation Yrotation
        JOINT head
        {
          OFFSET -0.24384 7.07133 1.2192
          CHANNELS 3 Zrotation Xrotation Yrotation
          JOINT leftEye
          {
            OFFSET 4.14528 8.04674 8.04672
            CHANNELS 3 Zrotation Xrotation Yrotation
            End Site
            {
              OFFSET 1.0 0.0 0.0
            }
          }
          JOINT rightEye
          {
            OFFSET -3.6576 8.04674 8.04672
            CHANNELS 3 Zrotation Xrotation Yrotation
            End Site
            {
              OFFSET 1.0 0.0 0.0
            }
          }
        }
      }
      JOINT rCollar
      {
        OFFSET -2.68224 19.2634 -4.8768
        CHANNELS 3 Zrotation Xrotation Yrotation
        JOINT rShldr
        {
          OFFSET -8.77824 -1.95073 1.46304
          CHANNELS 3 Zrotation Xrotation Yrotation
          JOINT rForeArm
          {
            OFFSET -28.1742 -1.7115 0.48768
            CHANNELS 3 Zrotation Xrotation Yrotation
            JOINT rHand
            {
              OFFSET -22.5879 0.773209 7.07136
              CHANNELS 3 Zrotation Xrotation Yrotation
              JOINT rThumb1
              {
                OFFSET -1.2192 -0.487915 3.41376
                CHANNELS 3 Zrotation Xrotation Yrotation
                JOINT rThumb2
                {
                  OFFSET -3.37035 -0.52449 3.41376
                  CHANNELS 3 Zrotation Xrotation Yrotation
                  End Site
                  {
                    OFFSET -1.78271 -1.18214 1.43049
                  }
                }
              }
              JOINT rIndex1
              {
                OFFSET -7.75947 0.938293 5.60832
                CHANNELS 3 Zrotation Xrotation Yrotation
                JOINT rIndex2
                {
                  OFFSET -2.54057 -0.884171 1.56538
                  CHANNELS 3 Zrotation Xrotation Yrotation
                  End Site
                  {
                    OFFSET -1.62519 -0.234802 1.16502
                  }
                }
              }
              JOINT rMid1
              {
                OFFSET -8.24714 1.18213 3.41376
                CHANNELS 3 Zrotation Xrotation Yrotation
                JOINT rMid2
                {
                  OFFSET -3.10165 -0.590103 1.0647
                  CHANNELS 3 Zrotation Xrotation Yrotation
                  End Site
                  {
                    OFFSET -2.48547 -0.328903 0.83742
                  }
                }
              }
              JOINT rRing1
              {
                OFFSET -8.82822 0.546677 1.51678
                CHANNELS 3 Zrotation Xrotation Yrotation
                JOINT rRing2
                {
                  OFFSET -2.60934 -0.819778 -0.0198488
                  CHANNELS 3 Zrotation Xrotation Yrotation
                  End Site
                  {
                    OFFSET -2.33842 -0.294052 0.168128
                  }
                }
              }
              JOINT rPinky1
              {
                OFFSET -8.27202 -0.0477905 -0.4584
                CHANNELS 3 Zrotation Xrotation Yrotation
                JOINT rPinky2
                {
                  OFFSET -1.82734 -0.647385 -0.700984
                  CHANNELS 3 Zrotation Xrotation Yrotation
                  End Site
                  {
                    OFFSET -1.69225 -0.51767 -0.607171
                  }
                }
              }
            }
          }
        }
      }
      JOINT lCollar
      {
        OFFSET 2.68224 19.2634 -4.8768
        CHANNELS 3 Zrotation Xrotation Yrotation
        JOINT lShldr
        {
          OFFSET 8.77824 -1.95073 1.46304
          CHANNELS 3 Zrotation Xrotation Yrotation
          JOINT lForeArm
          {
            OFFSET 28.1742 -1.7115 0.48768
            CHANNELS 3 Zrotation Xrotation Yrotation
            JOINT lHand
            {
              OFFSET 22.5879 0.773209 7.07136
              CHANNELS 3 Zrotation Xrotation Yrotation
              JOINT lThumb1
              {
                OFFSET 1.2192 -0.487915 3.41376
                CHANNELS 3 Zrotation Xrotation Yrotation
                JOINT lThumb2
                {
                  OFFSET 3.37035 -0.52449 3.41376
                  CHANNELS 3 Zrotation Xrotation Yrotation
                  End Site
                  {
                    OFFSET 1.78271 -1.18214 1.43049
                  }
                }
              }
              JOINT lIndex1
              {
                OFFSET 7.75947 0.938293 5.60832
                CHANNELS 3 Zrotation Xrotation Yrotation
                JOINT lIndex2
                {
                  OFFSET 2.54057 -0.884171 1.56538
                  CHANNELS 3 Zrotation Xrotation Yrotation
                  End Site
                  {
                    OFFSET 1.62519 -0.234802 1.16502
                  }
                }
              }
              JOINT lMid1
              {
                OFFSET 8.24714 1.18213 3.41376
                CHANNELS 3 Zrotation Xrotation Yrotation
                JOINT lMid2
                {
                  OFFSET 3.10165 -0.590103 1.0647
                  CHANNELS 3 Zrotation Xrotation Yrotation
                  End Site
                  {
                    OFFSET 2.48547 -0.328903 0.83742
                  }
                }
              }
              JOINT lRing1
              {
                OFFSET 8.82822 0.546677 1.51678
                CHANNELS 3 Zrotation Xrotation Yrotation
                JOINT lRing2
                {
                  OFFSET 2.60934 -0.819778 -0.0198488
                  CHANNELS 3 Zrotation Xrotation Yrotation
                  End Site
                  {
                    OFFSET 2.33842 -0.294052 0.168128
                  }
                }
              }
              JOINT lPinky1
              {
                OFFSET 8.27202 -0.0477905 -0.4584
                CHANNELS 3 Zrotation Xrotation Yrotation
                JOINT lPinky2
                {
                  OFFSET 1.82734 -0.647385 -0.700984
                  CHANNELS 3 Zrotation Xrotation Yrotation
                  End Site
                  {
                    OFFSET 1.69225 -0.51767 -0.607171
                  }
                }
              }
            }
          }
        }
      }
    }
  }
  JOINT rButtock
  {
    OFFSET -8.77824 4.35084 1.2192
    CHANNELS 3 Zrotation Xrotation Yrotation
    JOINT rThigh
    {
      OFFSET 0.0 -1.70687 -2.19456
      CHANNELS 3 Zrotation Xrotation Yrotation
      JOINT rShin
      {
        OFFSET 0.0 -36.8199 0.73152
        CHANNELS 3 Zrotation Xrotation Yrotation
        JOINT rFoot
        {
          OFFSET 0.73152 -45.1104 -5.12064
          CHANNELS 3 Zrotation Xrotation Yrotation
          End Site
          {
            OFFSET -1.1221 -3.69964 12.103
          }
        }
      }
    }
  }
  JOINT lButtock
  {
    OFFSET 8.77824 4.35084 1.2192
    CHANNELS 3 Zrotation Xrotation Yrotation
    JOINT lThigh
    {
      OFFSET 0.0 -1.70687 -2.19456
      CHANNELS 3 Zrotation Xrotation Yrotation
      JOINT lShin
      {
        OFFSET 0.0 -36.8199 0.73152
        CHANNELS 3 Zrotation Xrotation Yrotation
        JOINT lFoot
        {
          OFFSET -0.73152 -45.1104 -5.12064
          CHANNELS 3 Zrotation Xrotation Yrotation
          End Site
          {
            OFFSET 1.1221 -3.69964 12.103
          }
        }
      }
    }
  }
}
MOTION
Frames: 4
Frame Time: 0.00833333
0.0 87.233 0.0 -162.278 -84.8041 163.608 -2.15183 0.108035 2.14259 -3.92367 0.484007 0.198133 1.57275 9.56416 0.551567 2.64345 -20.7419 1.32975 -0.0 0.0 0.0 -0.0 0.0 0.0 3.98224e-14 -1.14107e-12 -4.60683e-14 83.8071 24.0417 -1.25687 -12.5557 -5.84599 22.6907 -0.0104188 2.91305 0.409759 -1.66744e-09 -2.75166e-10 2.57517e-09 -2.87221e-09 -4.7833e-10 4.4586e-09 -1.66743e-09 -2.75159e-10 2.57515e-09 7.73091 5.47488 0.417314 -1.66744e-09 -2.75166e-10 2.57516e-09 2.90554 0.965183 0.102902 -1.66743e-09 -2.75165e-10 2.57517e-09 10.2786 0.731801 0.0259123 -1.66744e-09 -2.75165e-10 2.57517e-09 2.22167 -0.733487 -0.20892 3.96941e-14 -1.14107e-12 -4.61677e-14 -80.8315 9.35127 6.46118 10.0847 -4.193 -17.9604 0.216182 -13.1288 1.87846 -1.6533e-09 -3.9537e-10 -3.58966e-09 -2.82841e-09 -6.90177e-10 -6.21846e-09 -1.6533e-09 -3.95363e-10 -3.58964e-09 -7.73091 5.47488 -0.417314 -1.6533e-09 -3.95369e-10 -3.58966e-09 -2.90554 0.965183 -0.102902 -1.6533e-09 -3.9537e-10 -3.58966e-09 -10.2786 0.731801 -0.0259123 -1.65329e-09 -3.95366e-10 -3.58966e-09 -2.22167 -0.733487 0.20892 -2.03217e-16 0.0 -3.88251e-19 -0.765652 2.05172 7.34946 -0.398996 32.9187 -0.328983 7.83308 33.2047 -17.7012 2.03217e-16 0.0 3.88251e-19 1.53467 -21.6758 17.4701 0.141031 32.0686 0.404824 0.727739 3.62449 -7.46769
-0.6680000000000064 87.2176 0.07479999999999976 -166.001 -84.8637 167.252 -2.76285 0.155123 2.04062 -3.77537 0.459209 0.149831 1.59369 9.6023 0.596461 2.53128 -20.6154 1.39217 -0.0 0.0 0.0 -0.0 0.0 0.0 3.56678e-14 -7.66534e-13 -2.2545e-14 83.7684 23.8102 -1.2015 -12.511 -5.81341 22.6032 -0.0113491 3.04531 0.428396 -1.57921e-09 -1.91021e-10 2.35682e-09 -2.72051e-09 -3.3211e-10 4.08042e-09 -1.5792e-09 -1.91015e-10 2.35679e-09 7.73091 5.47488 0.417314 -1.57921e-09 -1.91022e-10 2.35681e-09 2.90554 0.965183 0.102902 -1.5792e-09 -1.91021e-10 2.35681e-09 10.2786 0.731801 0.0259123 -1.57922e-09 -1.91021e-10 2.35682e-09 2.22167 -0.733487 -0.20892 3.55752e-14 -7.66536e-13 -2.26448e-14 -80.7795 9.54728 6.22279 10.1128 -4.21016 -18.0131 0.218807 -13.2064 1.88996 -1.50774e-09 -2.37666e-10 -3.3042e-09 -2.57919e-09 -4.16379e-10 -5.72361e-09 -1.50775e-09 -2.3766e-10 -3.30418e-09 -7.73091 5.47488 -0.417314 -1.50774e-09 -2.37666e-10 -3.30419e-09 -2.90554 0.965183 -0.102902 -1.50774e-09 -2.37667e-10 -3.3042e-09 -10.2786 0.731801 -0.0259123 -1.50773e-09 -2.37662e-10 -3.3042e-09 -2.22167 -0.733487 0.20892 -2.03217e-16 0.0 -3.88251e-19 -1.07794 0.962121 7.66583 -0.424374 34.7285 -0.292061 7.96259 33.6693 -17.7156 2.03217e-16 0.0 3.88251e-19 1.10458 -21.2812 17.4919 0.136185 32.2312 0.411141 0.739974 3.53385 -7.56372
-1.343999999999994 87.2124 0.1390999999999991 -169.081 -84.9266 170.249 -3.31103 0.190557 1.90692 -3.64336 0.448634 0.0948505 1.61944 9.6408 0.645105 2.40971 -20.4981 1.4603 -0.0 0.0 0.0 -0.0 0.0 0.0 1.15512e-14 -9.1921e-14 7.46685e-15 83.7249 23.567 -1.12171 -12.4674 -5.78182 22.5181 -0.0125217 3.2011 0.450355 -1.13412e-09 -2.89591e-11 1.73501e-09 -1.95366e-09 -5.03424e-11 3.00321e-09 -1.13411e-09 -2.89555e-11 1.73499e-09 7.73091 5.47488 0.417314 -1.13411e-09 -2.89619e-11 1.73501e-09 2.90554 0.965183 0.102902 -1.1341e-09 -2.89619e-11 1.73501e-09 10.2786 0.731801 0.0259123 -1.13412e-09 -2.89628e-11 1.73501e-09 2.22167 -0.733487 -0.20892 1.15118e-14 -9.19274e-14 7.3395e-15 -80.7239 9.78454 5.96445 10.1561 -4.23665 -18.0946 0.222364 -13.3096 1.9053 -9.9764e-10 -3.69021e-11 -2.45908e-09 -1.70442e-09 -6.67201e-11 -4.25835e-09 -9.97644e-10 -3.68978e-11 -2.45906e-09 -7.73091 5.47488 -0.417314 -9.9764e-10 -3.6902e-11 -2.45907e-09 -2.90554 0.965183 -0.102902 -9.97642e-10 -3.69029e-11 -2.45907e-09 -10.2786 0.731801 -0.0259123 -9.97631e-10 -3.68987e-11 -2.45907e-09 -2.22167 -0.733487 0.20892 -2.03217e-16 0.0 -3.88251e-19 -1.35037 -0.126928 7.94466 -0.452641 36.4891 -0.243023 7.94809 33.8574 -17.5941 2.03217e-16 0.0 3.88251e-19 0.683794 -20.8908 17.4668 0.131 32.3743 0.411237 0.752976 3.45978 -7.6435
-2.0320000000000107 87.2154 0.19679999999999964 -171.729 -85.0032 172.807 -3.7884 0.220181 1.7549 -3.52349 0.450671 0.0377964 1.64503 9.67561 0.694796 2.29039 -20.3866 1.53117 -0.0 0.0 0.0 -0.0 0.0 0.0 -1.6341e-14 5.3556e-13 3.02044e-14 83.6799 23.3265 -1.02858 -12.4279 -5.75329 22.441 -0.0136801 3.34258 0.470306 -5.99108e-10 1.5797e-10 9.87648e-10 -1.03192e-09 2.7448e-10 1.70863e-09 -5.99101e-10 1.57971e-10 9.87635e-10 7.73091 5.47488 0.417314 -5.99106e-10 1.57966e-10 9.87644e-10 2.90554 0.965183 0.102902 -5.99096e-10 1.57965e-10 9.87642e-10 10.2786 0.731801 0.0259123 -5.9911e-10 1.57963e-10 9.87645e-10 2.22167 -0.733487 -0.20892 -1.63317e-14 5.3555e-13 3.00386e-14 -80.6634 10.0553 5.68605 10.2128 -4.27151 -18.2013 0.226928 -13.442 1.92497 -4.1091e-10 1.183e-10 -1.46556e-09 -6.98298e-10 2.04187e-10 -2.53602e-09 -4.10914e-10 1.18302e-10 -1.46553e-09 -7.73091 5.47488 -0.417314 -4.10909e-10 1.183e-10 -1.46555e-09 -2.90554 0.965183 -0.102902 -4.10915e-10 1.18299e-10 -1.46555e-09 -10.2786 0.731801 -0.0259123 -4.10902e-10 1.18303e-10 -1.46555e-09 -2.22167 -0.733487 0.20892 -2.03217e-16 0.0 -3.88251e-19 -1.57821 -1.19781 8.17911 -0.481178 38.1734 -0.18374 7.7476 33.725 -17.2732 2.03217e-16 0.0 3.88251e-19 0.302297 -20.4867 17.438 0.125897 32.4948 0.405013 0.767953 3.40687 -7.73817
